<?xml version="1.0" encoding="UTF-8"?>
<!DOCTYPE svg PUBLIC "-//W3C//DTD SVG 1.1//EN" "http://www.w3.org/Graphics/SVG/1.1/DTD/svg11.dtd">
<svg version="1.1" xmlns="http://www.w3.org/2000/svg" xmlns:xlink="http://www.w3.org/1999/xlink" x="0" y="0" width="494.836" height="638.601" viewBox="0, 0, 494.836, 638.601">
  <defs>
    <clipPath id="Clip_1">
      <path d="M319.3,0 C495.645,0 252.234,208.923 407.893,319.3 C563.552,429.677 495.645,638.6 319.3,638.6 C142.955,638.6 0,495.645 0,319.3 C0,142.955 142.956,0 319.3,0 z"/>
    </clipPath>
  </defs>
  <g id="Layer_1">
    <path d="M319.3,0 C495.645,0 252.234,208.923 407.893,319.3 C563.552,429.677 495.645,638.6 319.3,638.6 C142.955,638.6 0,495.645 0,319.3 C0,142.955 142.956,0 319.3,0 z" fill="#00A3FF"/>
    <g clip-path="url(#Clip_1)">
      <path d="M175.536,638.6 C-0.809,638.6 242.6,429.678 86.943,319.3 C-68.714,208.922 -0.809,0 175.536,0 C351.881,0 494.836,142.956 494.836,319.3 C494.836,495.644 351.881,638.6 175.536,638.6 z" fill="#9FDCFF"/>
    </g>
  </g>
</svg>
