<?xml version="1.0" encoding="UTF-8"?>
<!DOCTYPE svg PUBLIC "-//W3C//DTD SVG 1.1//EN" "http://www.w3.org/Graphics/SVG/1.1/DTD/svg11.dtd">
<svg version="1.1" xmlns="http://www.w3.org/2000/svg" xmlns:xlink="http://www.w3.org/1999/xlink" x="0" y="0" width="494.836" height="638.601" viewBox="0, 0, 494.836, 638.601">
  <defs>
    <clipPath id="Clip_1">
      <path d="M175.536,0 C-0.809,0 242.6,208.923 86.943,319.3 C-68.714,429.677 -0.809,638.6 175.536,638.6 C351.881,638.6 494.836,495.644 494.836,319.3 C494.836,142.956 351.881,0 175.536,0 z"/>
    </clipPath>
  </defs>
  <g id="Layer_1">
    <path d="M175.536,0 C-0.809,0 242.6,208.923 86.943,319.3 C-68.714,429.677 -0.809,638.6 175.536,638.6 C351.881,638.6 494.836,495.644 494.836,319.3 C494.836,142.956 351.881,0 175.536,0 z" fill="#00A1FC"/>
    <g clip-path="url(#Clip_1)">
      <path d="M319.3,638.6 C495.645,638.6 252.234,429.678 407.893,319.3 C563.552,208.922 495.645,0 319.3,0 C142.955,0 -0,142.956 -0,319.3 C-0,495.644 142.956,638.6 319.3,638.6 z" fill="#FFFFFF" opacity="0.3"/>
    </g>
  </g>
</svg>
