<?xml version="1.0" encoding="UTF-8"?>
<!DOCTYPE svg PUBLIC "-//W3C//DTD SVG 1.1//EN" "http://www.w3.org/Graphics/SVG/1.1/DTD/svg11.dtd">
<svg version="1.1" xmlns="http://www.w3.org/2000/svg" xmlns:xlink="http://www.w3.org/1999/xlink" x="0" y="0" width="370" height="160" viewBox="0, 0, 370, 160">
  <g id="Layer_1">
    <g>
      <path d="M370,5 C370,7.761 367.761,10 365,10 C362.239,10 360,7.761 360,5 C360,2.239 362.239,0 365,0 C367.761,0 370,2.239 370,5 z" fill="#9EDAFD"/>
      <path d="M340,5 C340,7.761 337.761,10 335,10 C332.239,10 330,7.761 330,5 C330,2.239 332.239,0 335,0 C337.761,0 340,2.239 340,5 z" fill="#9EDAFD"/>
      <path d="M310,5 C310,7.761 307.761,10 305,10 C302.239,10 300,7.761 300,5 C300,2.239 302.239,0 305,0 C307.761,0 310,2.239 310,5 z" fill="#9EDAFD"/>
      <path d="M280,5 C280,7.761 277.761,10 275,10 C272.239,10 270,7.761 270,5 C270,2.239 272.239,0 275,0 C277.761,0 280,2.239 280,5 z" fill="#9EDAFD"/>
      <path d="M250,5 C250,7.761 247.761,10 245,10 C242.239,10 240,7.761 240,5 C240,2.239 242.239,0 245,0 C247.761,0 250,2.239 250,5 z" fill="#9EDAFD"/>
      <path d="M220,5 C220,7.761 217.761,10 215,10 C212.239,10 210,7.761 210,5 C210,2.239 212.239,0 215,0 C217.761,0 220,2.239 220,5 z" fill="#9EDAFD"/>
      <path d="M190,5 C190,7.761 187.761,10 185,10 C182.239,10 180,7.761 180,5 C180,2.239 182.239,0 185,0 C187.761,0 190,2.239 190,5 z" fill="#9EDAFD"/>
      <path d="M160,5 C160,7.761 157.761,10 155,10 C152.239,10 150,7.761 150,5 C150,2.239 152.239,0 155,0 C157.761,0 160,2.239 160,5 z" fill="#9EDAFD"/>
      <path d="M130,5 C130,7.761 127.761,10 125,10 C122.239,10 120,7.761 120,5 C120,2.239 122.239,0 125,0 C127.761,0 130,2.239 130,5 z" fill="#9EDAFD"/>
      <path d="M100,5 C100,7.761 97.761,10 95,10 C92.239,10 90,7.761 90,5 C90,2.239 92.239,0 95,0 C97.761,0 100,2.239 100,5 z" fill="#9EDAFD"/>
      <path d="M70,5 C70,7.761 67.761,10 65,10 C62.239,10 60,7.761 60,5 C60,2.239 62.239,0 65,0 C67.761,0 70,2.239 70,5 z" fill="#9EDAFD"/>
      <path d="M40,5 C40,7.761 37.761,10 35,10 C32.239,10 30,7.761 30,5 C30,2.239 32.239,0 35,0 C37.761,0 40,2.239 40,5 z" fill="#9EDAFD"/>
      <path d="M10,5 C10,7.761 7.761,10 5,10 C2.239,10 0,7.761 0,5 C0,2.239 2.239,0 5,0 C7.761,0 10,2.239 10,5 z" fill="#9EDAFD"/>
      <path d="M370,35 C370,37.761 367.761,40 365,40 C362.239,40 360,37.761 360,35 C360,32.239 362.239,30 365,30 C367.761,30 370,32.239 370,35 z" fill="#9EDAFD"/>
      <path d="M340,35 C340,37.761 337.761,40 335,40 C332.239,40 330,37.761 330,35 C330,32.239 332.239,30 335,30 C337.761,30 340,32.239 340,35 z" fill="#9EDAFD"/>
      <path d="M310,35 C310,37.761 307.761,40 305,40 C302.239,40 300,37.761 300,35 C300,32.239 302.239,30 305,30 C307.761,30 310,32.239 310,35 z" fill="#9EDAFD"/>
      <path d="M280,35 C280,37.761 277.761,40 275,40 C272.239,40 270,37.761 270,35 C270,32.239 272.239,30 275,30 C277.761,30 280,32.239 280,35 z" fill="#9EDAFD"/>
      <path d="M250,35 C250,37.761 247.761,40 245,40 C242.239,40 240,37.761 240,35 C240,32.239 242.239,30 245,30 C247.761,30 250,32.239 250,35 z" fill="#9EDAFD"/>
      <path d="M220,35 C220,37.761 217.761,40 215,40 C212.239,40 210,37.761 210,35 C210,32.239 212.239,30 215,30 C217.761,30 220,32.239 220,35 z" fill="#9EDAFD"/>
      <path d="M190,35 C190,37.761 187.761,40 185,40 C182.239,40 180,37.761 180,35 C180,32.239 182.239,30 185,30 C187.761,30 190,32.239 190,35 z" fill="#9EDAFD"/>
      <path d="M160,35 C160,37.761 157.761,40 155,40 C152.239,40 150,37.761 150,35 C150,32.239 152.239,30 155,30 C157.761,30 160,32.239 160,35 z" fill="#9EDAFD"/>
      <path d="M130,35 C130,37.761 127.761,40 125,40 C122.239,40 120,37.761 120,35 C120,32.239 122.239,30 125,30 C127.761,30 130,32.239 130,35 z" fill="#9EDAFD"/>
      <path d="M100,35 C100,37.761 97.761,40 95,40 C92.239,40 90,37.761 90,35 C90,32.239 92.239,30 95,30 C97.761,30 100,32.239 100,35 z" fill="#9EDAFD"/>
      <path d="M70,35 C70,37.761 67.761,40 65,40 C62.239,40 60,37.761 60,35 C60,32.239 62.239,30 65,30 C67.761,30 70,32.239 70,35 z" fill="#9EDAFD"/>
      <path d="M40,35 C40,37.761 37.761,40 35,40 C32.239,40 30,37.761 30,35 C30,32.239 32.239,30 35,30 C37.761,30 40,32.239 40,35 z" fill="#9EDAFD"/>
      <path d="M10,35 C10,37.761 7.761,40 5,40 C2.239,40 0,37.761 0,35 C0,32.239 2.239,30 5,30 C7.761,30 10,32.239 10,35 z" fill="#9EDAFD"/>
    </g>
    <path d="M370,65 C370,67.761 367.761,70 365,70 C362.239,70 360,67.761 360,65 C360,62.239 362.239,60 365,60 C367.761,60 370,62.239 370,65 z" fill="#0096EB"/>
    <path d="M340,65 C340,67.761 337.761,70 335,70 C332.239,70 330,67.761 330,65 C330,62.239 332.239,60 335,60 C337.761,60 340,62.239 340,65 z" fill="#0096EB"/>
    <path d="M310,65 C310,67.761 307.761,70 305,70 C302.239,70 300,67.761 300,65 C300,62.239 302.239,60 305,60 C307.761,60 310,62.239 310,65 z" fill="#0096EB"/>
    <path d="M280,65 C280,67.761 277.761,70 275,70 C272.239,70 270,67.761 270,65 C270,62.239 272.239,60 275,60 C277.761,60 280,62.239 280,65 z" fill="#0096EB"/>
    <path d="M250,65 C250,67.761 247.761,70 245,70 C242.239,70 240,67.761 240,65 C240,62.239 242.239,60 245,60 C247.761,60 250,62.239 250,65 z" fill="#0096EB"/>
    <path d="M220,65 C220,67.761 217.761,70 215,70 C212.239,70 210,67.761 210,65 C210,62.239 212.239,60 215,60 C217.761,60 220,62.239 220,65 z" fill="#0096EB"/>
    <path d="M190,65 C190,67.761 187.761,70 185,70 C182.239,70 180,67.761 180,65 C180,62.239 182.239,60 185,60 C187.761,60 190,62.239 190,65 z" fill="#FFFFFF"/>
    <path d="M160,65 C160,67.761 157.761,70 155,70 C152.239,70 150,67.761 150,65 C150,62.239 152.239,60 155,60 C157.761,60 160,62.239 160,65 z" fill="#FFFFFF"/>
    <path d="M130,65 C130,67.761 127.761,70 125,70 C122.239,70 120,67.761 120,65 C120,62.239 122.239,60 125,60 C127.761,60 130,62.239 130,65 z" fill="#FFFFFF"/>
    <path d="M100,65 C100,67.761 97.761,70 95,70 C92.239,70 90,67.761 90,65 C90,62.239 92.239,60 95,60 C97.761,60 100,62.239 100,65 z" fill="#FFFFFF"/>
    <path d="M70,65 C70,67.761 67.761,70 65,70 C62.239,70 60,67.761 60,65 C60,62.239 62.239,60 65,60 C67.761,60 70,62.239 70,65 z" fill="#FFFFFF"/>
    <path d="M40,65 C40,67.761 37.761,70 35,70 C32.239,70 30,67.761 30,65 C30,62.239 32.239,60 35,60 C37.761,60 40,62.239 40,65 z" fill="#FFFFFF"/>
    <path d="M10,65 C10,67.761 7.761,70 5,70 C2.239,70 0,67.761 0,65 C0,62.239 2.239,60 5,60 C7.761,60 10,62.239 10,65 z" fill="#FFFFFF"/>
    <path d="M370,95 C370,97.761 367.761,100 365,100 C362.239,100 360,97.761 360,95 C360,92.239 362.239,90 365,90 C367.761,90 370,92.239 370,95 z" fill="#0096EB"/>
    <path d="M340,95 C340,97.761 337.761,100 335,100 C332.239,100 330,97.761 330,95 C330,92.239 332.239,90 335,90 C337.761,90 340,92.239 340,95 z" fill="#0096EB"/>
    <path d="M310,95 C310,97.761 307.761,100 305,100 C302.239,100 300,97.761 300,95 C300,92.239 302.239,90 305,90 C307.761,90 310,92.239 310,95 z" fill="#0096EB"/>
    <path d="M280,95 C280,97.761 277.761,100 275,100 C272.239,100 270,97.761 270,95 C270,92.239 272.239,90 275,90 C277.761,90 280,92.239 280,95 z" fill="#0096EB"/>
    <path d="M250,95 C250,97.761 247.761,100 245,100 C242.239,100 240,97.761 240,95 C240,92.239 242.239,90 245,90 C247.761,90 250,92.239 250,95 z" fill="#0096EB"/>
    <path d="M220,95 C220,97.761 217.761,100 215,100 C212.239,100 210,97.761 210,95 C210,92.239 212.239,90 215,90 C217.761,90 220,92.239 220,95 z" fill="#0096EB"/>
    <path d="M190,95 C190,97.761 187.761,100 185,100 C182.239,100 180,97.761 180,95 C180,92.239 182.239,90 185,90 C187.761,90 190,92.239 190,95 z" fill="#FFFFFF"/>
    <path d="M160,95 C160,97.761 157.761,100 155,100 C152.239,100 150,97.761 150,95 C150,92.239 152.239,90 155,90 C157.761,90 160,92.239 160,95 z" fill="#FFFFFF"/>
    <path d="M130,95 C130,97.761 127.761,100 125,100 C122.239,100 120,97.761 120,95 C120,92.239 122.239,90 125,90 C127.761,90 130,92.239 130,95 z" fill="#FFFFFF"/>
    <path d="M100,95 C100,97.761 97.761,100 95,100 C92.239,100 90,97.761 90,95 C90,92.239 92.239,90 95,90 C97.761,90 100,92.239 100,95 z" fill="#FFFFFF"/>
    <path d="M70,95 C70,97.761 67.761,100 65,100 C62.239,100 60,97.761 60,95 C60,92.239 62.239,90 65,90 C67.761,90 70,92.239 70,95 z" fill="#FFFFFF"/>
    <path d="M40,95 C40,97.761 37.761,100 35,100 C32.239,100 30,97.761 30,95 C30,92.239 32.239,90 35,90 C37.761,90 40,92.239 40,95 z" fill="#FFFFFF"/>
    <path d="M10,95 C10,97.761 7.761,100 5,100 C2.239,100 0,97.761 0,95 C0,92.239 2.239,90 5,90 C7.761,90 10,92.239 10,95 z" fill="#FFFFFF"/>
    <path d="M370,125 C370,127.761 367.761,130 365,130 C362.239,130 360,127.761 360,125 C360,122.239 362.239,120 365,120 C367.761,120 370,122.239 370,125 z" fill="#0096EB"/>
    <path d="M340,125 C340,127.761 337.761,130 335,130 C332.239,130 330,127.761 330,125 C330,122.239 332.239,120 335,120 C337.761,120 340,122.239 340,125 z" fill="#0096EB"/>
    <path d="M310,125 C310,127.761 307.761,130 305,130 C302.239,130 300,127.761 300,125 C300,122.239 302.239,120 305,120 C307.761,120 310,122.239 310,125 z" fill="#0096EB"/>
    <path d="M280,125 C280,127.761 277.761,130 275,130 C272.239,130 270,127.761 270,125 C270,122.239 272.239,120 275,120 C277.761,120 280,122.239 280,125 z" fill="#0096EB"/>
    <path d="M250,125 C250,127.761 247.761,130 245,130 C242.239,130 240,127.761 240,125 C240,122.239 242.239,120 245,120 C247.761,120 250,122.239 250,125 z" fill="#0096EB"/>
    <path d="M220,125 C220,127.761 217.761,130 215,130 C212.239,130 210,127.761 210,125 C210,122.239 212.239,120 215,120 C217.761,120 220,122.239 220,125 z" fill="#0096EB"/>
    <path d="M190,125 C190,127.761 187.761,130 185,130 C182.239,130 180,127.761 180,125 C180,122.239 182.239,120 185,120 C187.761,120 190,122.239 190,125 z" fill="#009EF8"/>
    <path d="M160,125 C160,127.761 157.761,130 155,130 C152.239,130 150,127.761 150,125 C150,122.239 152.239,120 155,120 C157.761,120 160,122.239 160,125 z" fill="#FFFFFF"/>
    <path d="M130,125 C130,127.761 127.761,130 125,130 C122.239,130 120,127.761 120,125 C120,122.239 122.239,120 125,120 C127.761,120 130,122.239 130,125 z" fill="#FFFFFF"/>
    <path d="M100,125 C100,127.761 97.761,130 95,130 C92.239,130 90,127.761 90,125 C90,122.239 92.239,120 95,120 C97.761,120 100,122.239 100,125 z" fill="#FFFFFF"/>
    <path d="M70,125 C70,127.761 67.761,130 65,130 C62.239,130 60,127.761 60,125 C60,122.239 62.239,120 65,120 C67.761,120 70,122.239 70,125 z" fill="#FFFFFF"/>
    <path d="M40,125 C40,127.761 37.761,130 35,130 C32.239,130 30,127.761 30,125 C30,122.239 32.239,120 35,120 C37.761,120 40,122.239 40,125 z" fill="#FFFFFF"/>
    <path d="M10,125 C10,127.761 7.761,130 5,130 C2.239,130 0,127.761 0,125 C0,122.239 2.239,120 5,120 C7.761,120 10,122.239 10,125 z" fill="#FFFFFF"/>
    <path d="M370,155 C370,157.761 367.761,160 365,160 C362.239,160 360,157.761 360,155 C360,152.239 362.239,150 365,150 C367.761,150 370,152.239 370,155 z" fill="#0096EB"/>
    <path d="M340,155 C340,157.761 337.761,160 335,160 C332.239,160 330,157.761 330,155 C330,152.239 332.239,150 335,150 C337.761,150 340,152.239 340,155 z" fill="#0096EB"/>
    <path d="M310,155 C310,157.761 307.761,160 305,160 C302.239,160 300,157.761 300,155 C300,152.239 302.239,150 305,150 C307.761,150 310,152.239 310,155 z" fill="#0096EB"/>
    <path d="M280,155 C280,157.761 277.761,160 275,160 C272.239,160 270,157.761 270,155 C270,152.239 272.239,150 275,150 C277.761,150 280,152.239 280,155 z" fill="#0096EB"/>
    <path d="M250,155 C250,157.761 247.761,160 245,160 C242.239,160 240,157.761 240,155 C240,152.239 242.239,150 245,150 C247.761,150 250,152.239 250,155 z" fill="#0096EB"/>
    <path d="M220,155 C220,157.761 217.761,160 215,160 C212.239,160 210,157.761 210,155 C210,152.239 212.239,150 215,150 C217.761,150 220,152.239 220,155 z" fill="#0096EB"/>
    <path d="M190,155 C190,157.761 187.761,160 185,160 C182.239,160 180,157.761 180,155 C180,152.239 182.239,150 185,150 C187.761,150 190,152.239 190,155 z" fill="#009EF8"/>
    <path d="M160,155 C160,157.761 157.761,160 155,160 C152.239,160 150,157.761 150,155 C150,152.239 152.239,150 155,150 C157.761,150 160,152.239 160,155 z" fill="#008FE0"/>
    <path d="M130,155 C130,157.761 127.761,160 125,160 C122.239,160 120,157.761 120,155 C120,152.239 122.239,150 125,150 C127.761,150 130,152.239 130,155 z" fill="#FFFFFF"/>
    <path d="M100,155 C100,157.761 97.761,160 95,160 C92.239,160 90,157.761 90,155 C90,152.239 92.239,150 95,150 C97.761,150 100,152.239 100,155 z" fill="#FFFFFF"/>
    <path d="M70,155 C70,157.761 67.761,160 65,160 C62.239,160 60,157.761 60,155 C60,152.239 62.239,150 65,150 C67.761,150 70,152.239 70,155 z" fill="#FFFFFF"/>
    <path d="M40,155 C40,157.761 37.761,160 35,160 C32.239,160 30,157.761 30,155 C30,152.239 32.239,150 35,150 C37.761,150 40,152.239 40,155 z" fill="#FFFFFF"/>
    <path d="M10,155 C10,157.761 7.761,160 5,160 C2.239,160 0,157.761 0,155 C0,152.239 2.239,150 5,150 C7.761,150 10,152.239 10,155 z" fill="#FFFFFF"/>
  </g>
</svg>
