<?xml version="1.0" encoding="UTF-8"?>
<!DOCTYPE svg PUBLIC "-//W3C//DTD SVG 1.1//EN" "http://www.w3.org/Graphics/SVG/1.1/DTD/svg11.dtd">
<svg version="1.1" xmlns="http://www.w3.org/2000/svg" xmlns:xlink="http://www.w3.org/1999/xlink" x="0" y="0" width="1170" height="256" viewBox="0, 0, 1170, 256">
  <defs>
    <clipPath id="Clip_1">
      <path d="M29,0 L1141,0 C1157.016,0 1170,12.984 1170,29 L1170,227 C1170,243.016 1157.016,256 1141,256 L29,256 C12.984,256 0,243.016 0,227 L0,29 C0,12.984 12.984,0 29,0 z"/>
    </clipPath>
  </defs>
  <g id="Layer_1">
    <path d="M29,0 L1141,0 C1157.016,0 1170,12.984 1170,29 L1170,227 C1170,243.016 1157.016,256 1141,256 L29,256 C12.984,256 0,243.016 0,227 L0,29 C0,12.984 12.984,0 29,0 z" fill="#00A3FF"/>
    <g clip-path="url(#Clip_1)">
      <path d="M0,106.439 L9.75,120.716 C19.5,134.993 39,163.547 58.5,144.541 C78,125.178 97.5,59.147 117,44.602 C136.5,30.593 156,68.07 175.5,82.615 C195,96.624 214.5,87.701 234,82.615 C253.5,77.886 273,77.886 292.5,68.338 C312,59.147 331.5,39.516 351,63.609 C370.5,87.702 390,153.732 409.5,187.372 C429,220.655 448.5,220.655 468,192.101 C487.5,163.547 507,106.439 526.5,77.885 C546,49.331 565.5,49.331 585,39.785 C604.5,30.594 624,10.963 643.5,35.056 C663,59.149 682.5,125.18 702,158.82 C721.5,192.103 741,192.103 760.5,163.549 C780,134.995 799.5,77.887 819,58.881 C838.5,39.518 858,59.149 877.5,87.435 C897,116.257 916.5,153.735 936,182.556 C955.5,210.842 975,230.473 994.5,196.833 C1014,163.55 1033.5,77.888 1053,68.34 C1072.5,59.149 1092,125.18 1111.5,125.448 C1131,125.18 1150.5,59.148 1160.25,25.509 L1170,-7.777 L1170,-36.331 L0,-36.331 z" fill="#9FDCFF"/>
    </g>
  </g>
</svg>
